<?xml version="1.0" encoding="UTF-8"?>
<svg xmlns="http://www.w3.org/2000/svg" xmlns:xlink="http://www.w3.org/1999/xlink" width="50px" height="15px" viewBox="0 0 49 15" version="1.1">
<g id="surface1">
<path style=" stroke:none;fill-rule:nonzero;fill:rgb(99.215686%,99.215686%,99.215686%);fill-opacity:1;" d="M 11.53125 1.695312 C 11.609375 1.695312 11.6875 1.695312 11.769531 1.695312 C 11.769531 1.535156 11.769531 1.375 11.769531 1.210938 C 13.59375 1.210938 15.414062 1.210938 17.292969 1.210938 C 18.167969 3.125 19.039062 5.042969 19.9375 7.015625 C 20.492188 6.269531 20.835938 5.726562 21.199219 4.894531 C 21.285156 4.703125 21.371094 4.507812 21.460938 4.308594 C 21.621094 3.941406 21.621094 3.941406 21.78125 3.570312 C 22.125 2.789062 22.464844 2.011719 22.820312 1.210938 C 25.59375 1.210938 28.367188 1.210938 31.226562 1.210938 C 31.304688 1.449219 31.382812 1.6875 31.464844 1.933594 C 31.734375 1.78125 32 1.625 32.277344 1.464844 C 33.578125 0.714844 34.515625 0.566406 36.03125 0.726562 C 37.28125 1.101562 38.308594 1.628906 39.152344 2.660156 C 39.308594 2.511719 39.308594 2.511719 39.46875 2.359375 C 40.835938 1.113281 42.007812 0.601562 43.867188 0.648438 C 45.457031 0.863281 46.808594 1.632812 47.800781 2.902344 C 48.335938 4.152344 48.34375 5.277344 48.328125 6.613281 C 48.324219 6.828125 48.324219 7.039062 48.324219 7.257812 C 48.320312 7.933594 48.316406 8.609375 48.308594 9.285156 C 48.308594 9.742188 48.304688 10.203125 48.304688 10.664062 C 48.296875 11.785156 48.289062 12.910156 48.28125 14.03125 C 46.695312 14.03125 45.109375 14.03125 43.476562 14.03125 C 43.464844 13.445312 43.453125 12.863281 43.441406 12.257812 C 43.425781 11.691406 43.414062 11.125 43.398438 10.558594 C 43.390625 10.164062 43.382812 9.769531 43.375 9.375 C 43.363281 8.808594 43.347656 8.242188 43.335938 7.675781 C 43.332031 7.414062 43.332031 7.414062 43.328125 7.144531 C 43.300781 6.25 43.257812 5.84375 42.753906 5.082031 C 41.632812 4.789062 41.632812 4.789062 40.546875 5.078125 C 39.898438 5.804688 39.96875 6.554688 39.964844 7.488281 C 39.960938 7.675781 39.957031 7.863281 39.953125 8.054688 C 39.941406 8.652344 39.9375 9.246094 39.933594 9.84375 C 39.925781 10.25 39.917969 10.652344 39.910156 11.058594 C 39.890625 12.050781 39.882812 13.039062 39.871094 14.03125 C 38.289062 14.03125 36.703125 14.03125 35.070312 14.03125 C 35.058594 13.46875 35.046875 12.902344 35.03125 12.320312 C 35.019531 11.769531 35.007812 11.222656 34.992188 10.675781 C 34.984375 10.292969 34.976562 9.914062 34.96875 9.53125 C 34.957031 8.984375 34.941406 8.4375 34.929688 7.890625 C 34.921875 7.636719 34.921875 7.636719 34.917969 7.375 C 34.886719 6.148438 34.886719 6.148438 34.347656 5.082031 C 33.421875 4.859375 32.855469 4.777344 31.945312 5.082031 C 31.332031 5.925781 31.382812 6.882812 31.367188 7.890625 C 31.363281 8.066406 31.355469 8.242188 31.351562 8.421875 C 31.335938 8.980469 31.328125 9.542969 31.316406 10.101562 C 31.304688 10.480469 31.296875 10.859375 31.289062 11.242188 C 31.265625 12.171875 31.246094 13.101562 31.226562 14.03125 C 29.71875 14.03125 28.214844 14.03125 26.660156 14.03125 C 26.582031 11.15625 26.503906 8.285156 26.421875 5.324219 C 25.757812 6.578125 25.09375 7.835938 24.410156 9.132812 C 24.097656 9.726562 24.097656 9.726562 23.777344 10.332031 C 23.609375 10.644531 23.445312 10.960938 23.277344 11.277344 C 23.148438 11.519531 23.148438 11.519531 23.019531 11.769531 C 22.621094 12.519531 22.234375 13.273438 21.859375 14.03125 C 20.667969 14.03125 19.480469 14.03125 18.253906 14.03125 C 18.019531 13.570312 17.78125 13.105469 17.535156 12.628906 C 17.304688 12.179688 17.074219 11.730469 16.84375 11.28125 C 16.683594 10.96875 16.523438 10.65625 16.363281 10.34375 C 16.136719 9.898438 15.90625 9.449219 15.675781 9 C 15.46875 8.59375 15.46875 8.59375 15.253906 8.183594 C 14.894531 7.480469 14.894531 7.480469 14.410156 6.773438 C 14.332031 7.332031 14.253906 7.890625 14.171875 8.46875 C 11.238281 8.46875 8.304688 8.46875 5.285156 8.46875 C 5.824219 9.902344 5.824219 9.902344 6.652344 10.265625 C 7.609375 10.429688 8.429688 10.445312 9.367188 10.160156 C 9.574219 9.988281 9.785156 9.8125 10 9.632812 C 10.1875 9.488281 10.375 9.34375 10.570312 9.195312 C 11.871094 9.402344 13.039062 10.222656 14.171875 10.886719 C 13.203125 12.5 11.960938 13.796875 10.089844 14.273438 C 7.367188 14.675781 5.171875 14.664062 2.898438 13.003906 C 1.226562 11.582031 0.484375 9.929688 0.238281 7.742188 C 0.277344 5.832031 0.914062 4.332031 2.160156 2.902344 C 4.972656 0.230469 8.082031 0.234375 11.53125 1.695312 Z M 5.871094 4.566406 C 5.480469 5.042969 5.480469 5.042969 5.523438 5.566406 C 6.871094 5.566406 8.21875 5.566406 9.609375 5.566406 C 9.285156 4.367188 9.285156 4.367188 8.648438 4.113281 C 7.578125 3.984375 6.757812 3.914062 5.871094 4.566406 Z M 5.871094 4.566406 "/>
</g>
</svg>
