<?xml version="1.0" encoding="UTF-8"?>
<svg version="1.1" xmlns="http://www.w3.org/2000/svg" width="305" height="100">
<path d="M0 0 C1.27914399 0.90503358 2.55337558 1.81731525 3.8125 2.75 C3.3175 1.80125 2.8225 0.8525 2.3125 -0.125 C0.8125 -3.25 0.8125 -3.25 0.8125 -5.25 C11.7025 -5.25 22.5925 -5.25 33.8125 -5.25 C39.14286276 5.11459425 44.00358578 15.57082067 48.57373047 26.29321289 C48.98123535 27.24703857 49.38874023 28.20086426 49.80859375 29.18359375 C50.17138428 30.04009521 50.5341748 30.89659668 50.90795898 31.77905273 C51.65524134 33.70864761 51.65524134 33.70864761 52.8125 34.75 C55.05605258 29.85771367 57.29803129 24.96471033 59.53857422 20.07104492 C60.30051482 18.40743683 61.06288012 16.74402317 61.82568359 15.08081055 C62.92397814 12.68589838 64.02072805 10.29028403 65.1171875 7.89453125 C65.4568454 7.1547554 65.7965033 6.41497955 66.14645386 5.65278625 C66.46663483 4.95243759 66.7868158 4.25208893 67.11669922 3.53051758 C67.39649628 2.9198494 67.67629333 2.30918121 67.96456909 1.68000793 C68.96912907 -0.6065094 69.88496695 -2.93116738 70.8125 -5.25 C87.9725 -5.25 105.1325 -5.25 122.8125 -5.25 C123.1425 -2.94 123.4725 -0.63 123.8125 1.75 C124.43125 1.15251953 124.43125 1.15251953 125.0625 0.54296875 C132.98277505 -6.72317644 140.42278612 -7.96080136 150.88671875 -7.60546875 C160.82303179 -6.70576279 166.9540518 -2.13714464 173.8125 4.75 C174.35777344 4.21890625 174.90304688 3.6878125 175.46484375 3.140625 C183.84955286 -4.71376918 190.27080678 -7.88054322 201.85961914 -7.72094727 C210.930636 -7.31838419 217.16781832 -4.28116864 224.0234375 1.48046875 C230.21703744 9.3374154 230.35862373 17.27260784 230.203125 26.97265625 C230.19564882 28.32741962 230.18996241 29.68219392 230.18597412 31.03697205 C230.17082563 34.57338212 230.13164055 38.10911718 230.0871582 41.64526367 C230.04596966 45.2653694 230.02791322 48.88558602 230.0078125 52.50585938 C229.96513292 59.58751287 229.89701608 66.66871197 229.8125 73.75 C227.22526011 75.04361994 225.33136997 74.87948949 222.4375 74.8828125 C221.37015625 74.88410156 220.3028125 74.88539062 219.203125 74.88671875 C218.08421875 74.88285156 216.9653125 74.87898438 215.8125 74.875 C214.69359375 74.87886719 213.5746875 74.88273437 212.421875 74.88671875 C210.82085937 74.88478516 210.82085937 74.88478516 209.1875 74.8828125 C208.20523437 74.88168457 207.22296875 74.88055664 206.2109375 74.87939453 C203.8125 74.75 203.8125 74.75 201.8125 73.75 C201.80885437 73.13691986 201.80520874 72.52383972 201.80145264 71.8921814 C201.75958047 65.50016634 201.69020155 59.10886616 201.60498047 52.71728516 C201.57678805 50.33324337 201.55556497 47.94910842 201.54150391 45.56494141 C201.52005131 42.13395548 201.47338636 38.70408776 201.421875 35.2734375 C201.42003204 33.67935562 201.42003204 33.67935562 201.41815186 32.05307007 C201.29885128 25.99938838 200.88320665 22.3463563 196.8125 17.75 C192.98045447 15.23179865 189.28867866 15.59005989 184.90234375 16.203125 C181.94288296 16.97756334 180.55802854 18.2771679 178.8125 20.75 C177.84008055 23.66725834 177.66082181 25.63803439 177.60717773 28.68041992 C177.58723251 29.68123093 177.56728729 30.68204193 177.54673767 31.71318054 C177.53002518 32.79138565 177.51331268 33.86959076 177.49609375 34.98046875 C177.4649221 36.63880486 177.4649221 36.63880486 177.43312073 38.3306427 C177.36767668 41.8661979 177.30876397 45.40182806 177.25 48.9375 C177.2068099 51.33269008 177.16319546 53.72787255 177.11914062 56.12304688 C177.01200052 61.99861842 176.91022443 67.87426472 176.8125 73.75 C172.33365561 73.94581346 167.85441574 74.1302636 163.375 74.3125 C162.09560547 74.36857422 160.81621094 74.42464844 159.49804688 74.48242188 C157.67563477 74.55493164 157.67563477 74.55493164 155.81640625 74.62890625 C154.12753296 74.69960327 154.12753296 74.69960327 152.40454102 74.77172852 C149.8125 74.75 149.8125 74.75 148.8125 73.75 C148.70580522 72.32463517 148.66631009 70.89414982 148.65478516 69.46484375 C148.64452301 68.55299316 148.63426086 67.64114258 148.62368774 66.70166016 C148.61638641 65.7069873 148.60908508 64.71231445 148.6015625 63.6875 C148.57347027 61.58983626 148.54480568 59.49218013 148.515625 57.39453125 C148.47452058 54.08122154 148.43764442 50.76805015 148.41113281 47.45458984 C148.38335077 44.26109174 148.33745162 41.0682438 148.2890625 37.875 C148.2841832 36.40728149 148.2841832 36.40728149 148.27920532 34.90991211 C148.1739648 28.95707332 147.72677963 23.07212658 144.8125 17.75 C139.7007623 15.14401608 135.23727453 15.43755455 129.8125 16.75 C126.32798018 19.49313262 124.58942955 21.42789903 123.8125 25.75 C123.70137267 27.36774984 123.63704355 28.98906446 123.60717773 30.61035156 C123.58723251 31.57104553 123.56728729 32.5317395 123.54673767 33.52154541 C123.53002518 34.55084167 123.51331268 35.58013794 123.49609375 36.640625 C123.4649221 38.23025055 123.4649221 38.23025055 123.43312073 39.85198975 C123.36777814 43.23459438 123.30881119 46.61727612 123.25 50 C123.20680025 52.29427878 123.16318549 54.58854979 123.11914062 56.8828125 C123.01133207 62.50513048 122.91214447 68.12750766 122.8125 73.75 C113.5725 73.75 104.3325 73.75 94.8125 73.75 C94.4825 54.61 94.1525 35.47 93.8125 15.75 C91.585 20.08125 89.3575 24.4125 87.0625 28.875 C79.26251348 43.99137217 71.25266619 58.97970916 62.8125 73.75 C56.2125 73.75 49.6125 73.75 42.8125 73.75 C36.33177372 62.38030478 30.10160911 50.8893922 23.95483398 39.33691406 C23.6377095 38.74192612 23.32058502 38.14693817 22.99385071 37.53392029 C22.12383727 35.90122741 21.25546807 34.26765867 20.38720703 32.6340332 C18.93113234 29.96727191 17.37573499 27.35539166 15.8125 24.75 C15.8125 29.37 15.8125 33.99 15.8125 38.75 C-2.9975 38.75 -21.8075 38.75 -41.1875 38.75 C-38.8410221 47.35799618 -38.8410221 47.35799618 -32.62890625 51.9375 C-26.31039471 54.04030064 -19.64588899 53.79825388 -13.625 50.9375 C-11.57627469 49.78757031 -10.30902267 48.90411767 -8.84765625 47.05078125 C-7.1875 45.75 -7.1875 45.75 -4.4921875 45.80859375 C-0.41333108 46.97053748 3.00278982 48.74520621 6.6875 50.8125 C7.37585938 51.18955078 8.06421875 51.56660156 8.7734375 51.95507812 C10.4574213 52.87893035 12.13557467 53.81339667 13.8125 54.75 C10.60892461 63.36144577 5.13609595 67.84344035 -2.84375 72.23828125 C-15.94664621 78.16213736 -30.70507121 78.49381754 -44.1875 73.75 C-55.37371079 68.86713021 -62.98014185 61.84325084 -68.1875 50.75 C-72.36891826 38.56729643 -71.99681829 28.33523586 -67.2265625 16.33203125 C-61.74532998 5.35012922 -52.41400763 -1.78902703 -41.1875 -6.25 C-27.32605874 -10.31640696 -11.86460276 -7.714734 0 0 Z M-38.5 16.1875 C-40.44141884 18.82781218 -40.44141884 18.82781218 -41.1875 22.75 C-31.6175 22.75 -22.0475 22.75 -12.1875 22.75 C-14.17038033 16.80135901 -15.13205598 14.40159136 -20.5 11.5 C-27.71644277 9.48610899 -33.32142167 10.72899852 -38.5 16.1875 Z M13.8125 20.75 C14.8125 22.75 14.8125 22.75 14.8125 22.75 Z " fill="#000000" transform="translate(73.1875,19.25)"/>
</svg>
