<?xml version="1.0" encoding="UTF-8"?>
<svg xmlns="http://www.w3.org/2000/svg" xmlns:xlink="http://www.w3.org/1999/xlink" width="50px" height="16px" viewBox="0 0 50 16" version="1.1">
<g id="surface1">
<path style=" stroke:none;fill-rule:nonzero;fill:rgb(0%,0%,0%);fill-opacity:1;" d="M 11.996094 3.078125 C 12.207031 3.226562 12.417969 3.371094 12.621094 3.519531 C 12.542969 3.367188 12.460938 3.214844 12.378906 3.058594 C 12.132812 2.558594 12.132812 2.558594 12.132812 2.238281 C 13.917969 2.238281 15.703125 2.238281 17.539062 2.238281 C 18.414062 3.898438 19.210938 5.570312 19.960938 7.285156 C 20.027344 7.441406 20.09375 7.59375 20.164062 7.75 C 20.222656 7.886719 20.28125 8.023438 20.34375 8.164062 C 20.464844 8.472656 20.464844 8.472656 20.65625 8.640625 C 21.023438 7.855469 21.390625 7.074219 21.757812 6.292969 C 21.882812 6.023438 22.007812 5.757812 22.132812 5.492188 C 22.3125 5.109375 22.492188 4.726562 22.671875 4.34375 C 22.730469 4.226562 22.785156 4.105469 22.839844 3.984375 C 22.894531 3.871094 22.945312 3.761719 23 3.644531 C 23.046875 3.546875 23.09375 3.449219 23.140625 3.347656 C 23.304688 2.984375 23.453125 2.609375 23.605469 2.238281 C 26.417969 2.238281 29.234375 2.238281 32.132812 2.238281 C 32.183594 2.609375 32.238281 2.980469 32.296875 3.359375 C 32.398438 3.265625 32.398438 3.265625 32.5 3.167969 C 33.796875 2.003906 35.019531 1.804688 36.734375 1.863281 C 38.363281 2.007812 39.367188 2.738281 40.492188 3.839844 C 40.582031 3.753906 40.671875 3.671875 40.761719 3.582031 C 42.136719 2.324219 43.191406 1.820312 45.089844 1.84375 C 46.578125 1.910156 47.597656 2.394531 48.722656 3.316406 C 49.738281 4.574219 49.761719 5.84375 49.734375 7.394531 C 49.734375 7.613281 49.734375 7.828125 49.734375 8.046875 C 49.730469 8.613281 49.722656 9.175781 49.71875 9.742188 C 49.710938 10.324219 49.707031 10.902344 49.703125 11.480469 C 49.695312 12.613281 49.6875 13.746094 49.671875 14.878906 C 49.246094 15.085938 48.9375 15.0625 48.464844 15.0625 C 48.289062 15.0625 48.113281 15.0625 47.933594 15.0625 C 47.75 15.0625 47.566406 15.0625 47.378906 15.058594 C 47.195312 15.0625 47.011719 15.0625 46.820312 15.0625 C 46.558594 15.0625 46.558594 15.0625 46.289062 15.0625 C 46.128906 15.0625 45.96875 15.0625 45.804688 15.0625 C 45.410156 15.039062 45.410156 15.039062 45.082031 14.878906 C 45.082031 14.78125 45.082031 14.683594 45.082031 14.582031 C 45.074219 13.558594 45.0625 12.539062 45.046875 11.515625 C 45.042969 11.132812 45.039062 10.75 45.039062 10.371094 C 45.035156 9.820312 45.027344 9.273438 45.019531 8.722656 C 45.019531 8.46875 45.019531 8.46875 45.015625 8.207031 C 44.996094 7.238281 44.929688 6.65625 44.261719 5.921875 C 43.632812 5.515625 43.027344 5.574219 42.308594 5.671875 C 41.824219 5.796875 41.597656 6.003906 41.3125 6.398438 C 41.152344 6.867188 41.121094 7.183594 41.113281 7.667969 C 41.109375 7.828125 41.105469 7.988281 41.105469 8.152344 C 41.101562 8.328125 41.097656 8.5 41.09375 8.675781 C 41.089844 8.941406 41.089844 8.941406 41.085938 9.214844 C 41.074219 9.777344 41.066406 10.34375 41.054688 10.910156 C 41.046875 11.292969 41.042969 11.675781 41.035156 12.058594 C 41.015625 13 41 13.941406 40.984375 14.878906 C 40.25 14.910156 39.515625 14.941406 38.78125 14.96875 C 38.570312 14.980469 38.359375 14.988281 38.144531 14.996094 C 37.847656 15.007812 37.847656 15.007812 37.542969 15.019531 C 37.265625 15.03125 37.265625 15.03125 36.980469 15.042969 C 36.558594 15.039062 36.558594 15.039062 36.394531 14.878906 C 36.375 14.652344 36.371094 14.421875 36.367188 14.195312 C 36.367188 14.046875 36.363281 13.902344 36.363281 13.753906 C 36.359375 13.59375 36.359375 13.433594 36.359375 13.269531 C 36.355469 12.933594 36.347656 12.597656 36.34375 12.261719 C 36.339844 11.734375 36.332031 11.203125 36.328125 10.671875 C 36.324219 10.160156 36.316406 9.652344 36.308594 9.140625 C 36.308594 8.90625 36.308594 8.90625 36.304688 8.664062 C 36.289062 7.714844 36.214844 6.773438 35.738281 5.921875 C 34.898438 5.503906 34.167969 5.550781 33.277344 5.761719 C 32.707031 6.199219 32.421875 6.507812 32.296875 7.199219 C 32.277344 7.457031 32.265625 7.71875 32.261719 7.976562 C 32.257812 8.132812 32.253906 8.285156 32.25 8.445312 C 32.25 8.609375 32.246094 8.773438 32.242188 8.941406 C 32.238281 9.195312 32.238281 9.195312 32.234375 9.457031 C 32.222656 9.996094 32.210938 10.539062 32.203125 11.078125 C 32.195312 11.445312 32.1875 11.8125 32.179688 12.179688 C 32.164062 13.082031 32.148438 13.980469 32.132812 14.878906 C 30.617188 14.878906 29.101562 14.878906 27.539062 14.878906 C 27.488281 11.816406 27.433594 8.753906 27.378906 5.601562 C 27.011719 6.292969 26.648438 6.984375 26.269531 7.699219 C 24.992188 10.117188 23.679688 12.515625 22.296875 14.878906 C 21.214844 14.878906 20.132812 14.878906 19.015625 14.878906 C 17.953125 13.0625 16.933594 11.222656 15.925781 9.375 C 15.871094 9.277344 15.820312 9.183594 15.765625 9.085938 C 15.625 8.824219 15.484375 8.5625 15.339844 8.300781 C 15.101562 7.875 14.847656 7.457031 14.589844 7.039062 C 14.589844 7.777344 14.589844 8.519531 14.589844 9.28125 C 11.507812 9.28125 8.421875 9.28125 5.246094 9.28125 C 5.628906 10.65625 5.628906 10.65625 6.648438 11.390625 C 7.683594 11.726562 8.777344 11.6875 9.765625 11.230469 C 10.101562 11.046875 10.308594 10.90625 10.546875 10.609375 C 10.820312 10.398438 10.820312 10.398438 11.261719 10.410156 C 11.929688 10.59375 12.488281 10.878906 13.09375 11.210938 C 13.207031 11.269531 13.320312 11.332031 13.4375 11.394531 C 13.710938 11.539062 13.988281 11.691406 14.261719 11.839844 C 13.738281 13.21875 12.839844 13.933594 11.53125 14.636719 C 9.382812 15.585938 6.964844 15.640625 4.753906 14.878906 C 2.921875 14.097656 1.671875 12.976562 0.820312 11.199219 C 0.132812 9.25 0.195312 7.613281 0.976562 5.691406 C 1.875 3.9375 3.40625 2.792969 5.246094 2.078125 C 7.519531 1.429688 10.054688 1.84375 11.996094 3.078125 Z M 5.6875 5.671875 C 5.367188 6.09375 5.367188 6.09375 5.246094 6.71875 C 6.816406 6.71875 8.382812 6.71875 10 6.71875 C 9.675781 5.769531 9.515625 5.382812 8.636719 4.921875 C 7.453125 4.597656 6.535156 4.796875 5.6875 5.671875 Z M 14.261719 6.398438 C 14.425781 6.71875 14.425781 6.71875 14.425781 6.71875 Z M 14.261719 6.398438 "/>
</g>
</svg>
