<?xml version="1.0" encoding="UTF-8"?>
<svg xmlns="http://www.w3.org/2000/svg" xmlns:xlink="http://www.w3.org/1999/xlink" width="80px" height="24px" viewBox="0 0 78 24" version="1.1">
<g id="surface1">
<path style=" stroke:none;fill-rule:nonzero;fill:rgb(99.215686%,99.215686%,99.215686%);fill-opacity:1;" d="M 18.351562 2.710938 C 18.480469 2.710938 18.605469 2.710938 18.734375 2.710938 C 18.734375 2.453125 18.734375 2.199219 18.734375 1.933594 C 21.636719 1.933594 24.539062 1.933594 27.53125 1.933594 C 28.917969 5 30.304688 8.066406 31.734375 11.226562 C 32.621094 10.03125 33.167969 9.160156 33.746094 7.832031 C 33.882812 7.523438 34.019531 7.210938 34.160156 6.890625 C 34.414062 6.304688 34.414062 6.304688 34.675781 5.710938 C 35.21875 4.464844 35.761719 3.21875 36.324219 1.933594 C 40.738281 1.933594 45.15625 1.933594 49.707031 1.933594 C 49.832031 2.320312 49.957031 2.703125 50.089844 3.097656 C 50.515625 2.847656 50.941406 2.601562 51.378906 2.347656 C 53.453125 1.140625 54.941406 0.90625 57.351562 1.160156 C 59.347656 1.765625 60.984375 2.605469 62.324219 4.257812 C 62.574219 4.019531 62.574219 4.019531 62.828125 3.777344 C 65.003906 1.785156 66.871094 0.964844 69.828125 1.039062 C 72.363281 1.382812 74.511719 2.613281 76.089844 4.644531 C 76.941406 6.644531 76.953125 8.445312 76.925781 10.582031 C 76.925781 10.921875 76.925781 11.261719 76.925781 11.613281 C 76.921875 12.695312 76.910156 13.773438 76.902344 14.855469 C 76.898438 15.589844 76.894531 16.324219 76.890625 17.0625 C 76.882812 18.859375 76.867188 20.65625 76.851562 22.453125 C 74.328125 22.453125 71.804688 22.453125 69.207031 22.453125 C 69.1875 21.515625 69.167969 20.578125 69.148438 19.613281 C 69.128906 18.707031 69.105469 17.800781 69.085938 16.890625 C 69.070312 16.261719 69.054688 15.632812 69.042969 15 C 69.027344 14.09375 69.003906 13.1875 68.980469 12.28125 C 68.976562 11.859375 68.976562 11.859375 68.96875 11.429688 C 68.925781 10 68.863281 9.347656 68.058594 8.128906 C 66.277344 7.660156 66.277344 7.660156 64.546875 8.128906 C 63.507812 9.289062 63.621094 10.488281 63.621094 11.980469 C 63.613281 12.28125 63.605469 12.578125 63.601562 12.886719 C 63.582031 13.839844 63.574219 14.796875 63.566406 15.75 C 63.554688 16.398438 63.542969 17.042969 63.53125 17.691406 C 63.503906 19.277344 63.488281 20.863281 63.46875 22.453125 C 60.945312 22.453125 58.421875 22.453125 55.824219 22.453125 C 55.804688 21.546875 55.785156 20.644531 55.765625 19.710938 C 55.746094 18.835938 55.722656 17.957031 55.703125 17.078125 C 55.6875 16.46875 55.675781 15.859375 55.664062 15.253906 C 55.644531 14.375 55.621094 13.5 55.597656 12.621094 C 55.59375 12.214844 55.59375 12.214844 55.585938 11.800781 C 55.53125 9.835938 55.53125 9.835938 54.675781 8.128906 C 53.199219 7.777344 52.300781 7.640625 50.851562 8.128906 C 49.875 9.484375 49.957031 11.011719 49.929688 12.621094 C 49.921875 12.90625 49.914062 13.1875 49.90625 13.476562 C 49.882812 14.371094 49.867188 15.265625 49.847656 16.160156 C 49.835938 16.769531 49.820312 17.378906 49.804688 17.988281 C 49.765625 19.476562 49.738281 20.964844 49.707031 22.453125 C 47.308594 22.453125 44.910156 22.453125 42.441406 22.453125 C 42.316406 17.851562 42.1875 13.253906 42.058594 8.515625 C 41.003906 10.527344 39.945312 12.539062 38.855469 14.613281 C 38.359375 15.5625 38.359375 15.5625 37.847656 16.53125 C 37.585938 17.035156 37.320312 17.539062 37.054688 18.042969 C 36.851562 18.433594 36.851562 18.433594 36.640625 18.828125 C 36.011719 20.03125 35.394531 21.234375 34.792969 22.453125 C 32.902344 22.453125 31.007812 22.453125 29.058594 22.453125 C 28.679688 21.710938 28.304688 20.96875 27.914062 20.207031 C 27.546875 19.488281 27.179688 18.769531 26.8125 18.050781 C 26.558594 17.550781 26.304688 17.050781 26.050781 16.554688 C 25.683594 15.835938 25.316406 15.117188 24.953125 14.398438 C 24.621094 13.753906 24.621094 13.753906 24.285156 13.089844 C 23.710938 11.964844 23.710938 11.964844 22.941406 10.839844 C 22.816406 11.734375 22.6875 12.628906 22.558594 13.546875 C 17.890625 13.546875 13.222656 13.546875 8.410156 13.546875 C 9.269531 15.84375 9.269531 15.84375 10.585938 16.425781 C 12.117188 16.691406 13.417969 16.714844 14.910156 16.257812 C 15.242188 15.980469 15.574219 15.699219 15.914062 15.410156 C 16.214844 15.179688 16.515625 14.949219 16.824219 14.710938 C 18.898438 15.042969 20.757812 16.359375 22.558594 17.417969 C 21.019531 19.996094 19.039062 22.078125 16.058594 22.839844 C 11.726562 23.476562 8.230469 23.460938 4.617188 20.804688 C 1.957031 18.535156 0.773438 15.882812 0.382812 12.386719 C 0.441406 9.332031 1.453125 6.929688 3.441406 4.644531 C 7.914062 0.367188 12.867188 0.375 18.351562 2.710938 Z M 9.34375 7.304688 C 8.722656 8.070312 8.722656 8.070312 8.792969 8.902344 C 10.9375 8.902344 13.085938 8.902344 15.292969 8.902344 C 14.785156 6.988281 14.785156 6.988281 13.765625 6.582031 C 12.066406 6.378906 10.753906 6.261719 9.34375 7.304688 Z M 9.34375 7.304688 "/>
</g>
</svg>
